name rise32.9588peak41.5061fall63.4684.mot
datacolumns 19
datarows 20
range 3.00165800000000 3.03331900000000
endheader
time	ground_force1_vx	ground_force1_vy	ground_force1_vz	ground_force1_px	ground_force1_py	ground_force1_pz	ground_force2_vx	ground_force2_vy	ground_force2_vz	ground_force2_px	ground_force2_py	ground_force2_pz	ground_torque1_x	ground_torque1_y	ground_torque1_z	ground_torque2_x	ground_torque2_y	ground_torque2_z	
3.00165800000000	-40.33059200000000	813.50658599999997	53.14044800000000	0.09122900000000	0.00000000000000	0.09873900000000	-1.84623200000000	26.89079200000000	1.28335200000000	0.31073000000000	0.00000000000000	-0.07134000000000	0.00000000000000	17.39024700000000	0.00000000000000	0.00000000000000	0.72615100000000	0.00000000000000	
3.00332400000000	-40.73284300000000	811.76128400000005	52.90222300000000	0.09058600000000	0.00000000000000	0.09867500000000	-2.21389100000000	32.96309400000000	1.58014900000000	0.31515400000000	0.00000000000000	-0.07151900000000	0.00000000000000	17.31542500000000	0.00000000000000	0.00000000000000	0.90195600000000	0.00000000000000	
3.00498900000000	-41.14417200000000	809.88201500000002	52.64155800000000	0.08995100000000	0.00000000000000	0.09860700000000	-2.57506900000000	39.25067100000000	1.88752200000000	0.31911800000000	0.00000000000000	-0.07167800000000	0.00000000000000	17.24075900000000	0.00000000000000	0.00000000000000	1.08666600000000	0.00000000000000	
3.00665800000000	-41.56517900000000	807.86771799999997	52.35816400000000	0.08932200000000	0.00000000000000	0.09853500000000	-2.91798100000000	45.63140100000000	2.19880200000000	0.32268200000000	0.00000000000000	-0.07182200000000	0.00000000000000	17.16641200000000	0.00000000000000	0.00000000000000	1.27665200000000	0.00000000000000	
3.00832600000000	-41.99641700000000	805.71740000000000	52.05179200000000	0.08869900000000	0.00000000000000	0.09845800000000	-3.23187700000000	51.99623000000000	2.50773200000000	0.32589800000000	0.00000000000000	-0.07195300000000	0.00000000000000	17.09253700000000	0.00000000000000	0.00000000000000	1.46849200000000	0.00000000000000	
3.00999100000000	-42.43838400000000	803.43013199999996	51.72223500000000	0.08808300000000	0.00000000000000	0.09837800000000	-3.50759400000000	58.25613800000000	2.80881800000000	0.32880800000000	0.00000000000000	-0.07207500000000	0.00000000000000	17.01928100000000	0.00000000000000	0.00000000000000	1.65918700000000	0.00000000000000	
3.01165900000000	-42.89152200000000	801.00504699999999	51.36932800000000	0.08747100000000	0.00000000000000	0.09829400000000	-3.73790900000000	64.34647800000000	3.09757800000000	0.33144500000000	0.00000000000000	-0.07219000000000	0.00000000000000	16.94678000000000	0.00000000000000	0.00000000000000	1.84631400000000	0.00000000000000	
3.01332100000000	-43.35621300000000	798.44133199999999	50.99294800000000	0.08686500000000	0.00000000000000	0.09820500000000	-3.91768300000000	70.22863400000000	3.37065900000000	0.33384100000000	0.00000000000000	-0.07229800000000	0.00000000000000	16.87516300000000	0.00000000000000	0.00000000000000	2.02809600000000	0.00000000000000	
3.01499100000000	-43.83277300000000	795.73822900000005	50.59301700000000	0.08626300000000	0.00000000000000	0.09811200000000	-4.04382700000000	75.88925800000000	3.62584600000000	0.33602100000000	0.00000000000000	-0.07240300000000	0.00000000000000	16.80454700000000	0.00000000000000	0.00000000000000	2.20341600000000	0.00000000000000	
3.01665200000000	-44.32144700000000	792.89502300000004	50.16950300000000	0.08566600000000	0.00000000000000	0.09801500000000	-4.11510500000000	81.33755800000000	3.86197700000000	0.33800500000000	0.00000000000000	-0.07250400000000	0.00000000000000	16.73503800000000	0.00000000000000	0.00000000000000	2.37176000000000	0.00000000000000	
3.01833400000000	-44.82241100000000	789.91104600000006	49.72241700000000	0.08507300000000	0.00000000000000	0.09791300000000	-4.13184200000000	86.60118500000000	4.07878700000000	0.33981200000000	0.00000000000000	-0.07260300000000	0.00000000000000	16.66672900000000	0.00000000000000	0.00000000000000	2.53312900000000	0.00000000000000	
3.01998800000000	-45.33576100000000	786.78566899999998	49.25181700000000	0.08448300000000	0.00000000000000	0.09780700000000	-4.09555700000000	91.72132499999999	4.27670000000000	0.34146000000000	0.00000000000000	-0.07270100000000	0.00000000000000	16.59970500000000	0.00000000000000	0.00000000000000	2.68791500000000	0.00000000000000	
3.02165400000000	-45.86151700000000	783.51829799999996	48.75780900000000	0.08389600000000	0.00000000000000	0.09769700000000	-4.00857300000000	96.74751999999999	4.45661300000000	0.34296000000000	0.00000000000000	-0.07279800000000	0.00000000000000	16.53403400000000	0.00000000000000	0.00000000000000	2.83676800000000	0.00000000000000	
3.02332700000000	-46.39961200000000	780.10837500000002	48.24054400000000	0.08331200000000	0.00000000000000	0.09758200000000	-3.87364600000000	101.73269999999999	4.61967500000000	0.34432700000000	0.00000000000000	-0.07289600000000	0.00000000000000	16.46977400000000	0.00000000000000	0.00000000000000	2.98046000000000	0.00000000000000	
3.02498800000000	-46.94989800000000	776.55537100000004	47.70022000000000	0.08273000000000	0.00000000000000	0.09746400000000	-3.69362200000000	106.72878000000000	4.76707800000000	0.34557000000000	0.00000000000000	-0.07299300000000	0.00000000000000	16.40696900000000	0.00000000000000	0.00000000000000	3.11976900000000	0.00000000000000	
3.02665300000000	-47.51213600000000	772.85878200000002	47.13708200000000	0.08215000000000	0.00000000000000	0.09734000000000	-3.47116900000000	111.78307599999999	4.89989600000000	0.34669900000000	0.00000000000000	-0.07309200000000	0.00000000000000	16.34564600000000	0.00000000000000	0.00000000000000	3.25537500000000	0.00000000000000	
3.02832500000000	-48.08599700000000	769.01813200000004	46.55142400000000	0.08157200000000	0.00000000000000	0.09721300000000	-3.20856400000000	116.93566800000001	5.01894900000000	0.34772200000000	0.00000000000000	-0.07319200000000	0.00000000000000	16.28582300000000	0.00000000000000	0.00000000000000	3.38778100000000	0.00000000000000	
3.02998600000000	-48.67106000000000	765.03296799999998	45.94358600000000	0.08099400000000	0.00000000000000	0.09708100000000	-2.90756400000000	122.21775100000001	5.12471900000000	0.34864700000000	0.00000000000000	-0.07329300000000	0.00000000000000	16.22750000000000	0.00000000000000	0.00000000000000	3.51726600000000	0.00000000000000	
3.03166700000000	-49.26680900000000	760.90285700000004	45.31395300000000	0.08041700000000	0.00000000000000	0.09694500000000	-2.56934400000000	127.65091700000001	5.21730100000000	0.34948000000000	0.00000000000000	-0.07339600000000	0.00000000000000	16.17066200000000	0.00000000000000	0.00000000000000	3.64385800000000	0.00000000000000	
3.03331900000000	-49.87263300000000	756.62738899999999	44.66296100000000	0.07984000000000	0.00000000000000	0.09680400000000	-2.19450000000000	133.24725400000000	5.29640200000000	0.35022700000000	0.00000000000000	-0.07350100000000	0.00000000000000	16.11528100000000	0.00000000000000	0.00000000000000	3.76733400000000	0.00000000000000	
